# xmcd
#
# Track frame offsets:
#	183
#	24833
#	44443
#
# Disc length: 910 seconds
#
# Revision: 0
# Processed by: cddbd v1.5PL3 Copyright (c) Steve Scherf et al.
# Submitted via: dBpowerAMP V4.0
#
DISCID=19038c03
DTITLE=Kenny G - Silhouette
DYEAR=1988
DGENRE=Ballad
TTITLE0=silhouette
TTITLE1=home
TTITLE2=looking for a way to let go
EXTD=
EXTT0=
EXTT1=
EXTT2=
PLAYORDER=
